<?xml version="1.0" encoding="utf-8"?>
<!-- Generator: Adobe Illustrator 26.0.1, SVG Export Plug-In . SVG Version: 6.00 Build 0)  -->
<svg version="1.1" xmlns="http://www.w3.org/2000/svg" xmlns:xlink="http://www.w3.org/1999/xlink" x="0px" y="0px"
	 viewBox="0 0 662.47 757.37" style="enable-background:new 0 0 662.47 757.37;" xml:space="preserve">
<style type="text/css">
	.st0{display:none;}
	.st1{display:inline;}
	.st2{fill:#407BFF;}
	.st3{opacity:0.9;fill:#FFFFFF;}
	.st4{fill:#EBEBEB;}
	.st5{fill:#F5F5F5;}
	.st6{fill:#FF431E;}
	.st7{opacity:0.3;fill:#FFFFFF;}
	.st8{opacity:0.4;fill:#FFFFFF;}
	.st9{fill:#FFFFFF;}
	.st10{opacity:0.1;}
	.st11{opacity:0.8;}
	.st12{opacity:0.6;}
	.st13{fill:#381F1F;}
	.st14{opacity:0.2;}
	.st15{opacity:0.7;fill:#FFFFFF;}
	.st16{opacity:0.5;fill:#FFFFFF;}
	.st17{opacity:0.2;fill:#FFFFFF;}
	.st18{fill:#B55B52;}
	.st19{fill:#381B2A;}
	.st20{fill:#A02724;}
	.st21{opacity:0.4;}
	.st22{fill:#FF712B;}
	.st23{opacity:0.6;fill:#FAFAFA;}
	.st24{opacity:0.6;fill:#FFFFFF;}
	.st25{fill:#F0F0F0;}
	.st26{fill:#E6E6E6;}
	.st27{fill:#E0E0E0;}
</style>
<g id="Background_Complete">
</g>
<g id="Background_Simple" class="st0">
	<g class="st1">
		<path class="st2" d="M188.76,464c11.27-51.09,62-89.3,99.27-89.44c42-0.16,77.79,31.99,106,34.84
			c24.88,2.51,55.69-34.07,100-24.84c36,7.5,56,61.32,50,95.46c-11.13,63.36-40,101.19-80.32,108.51c-17.66,3.21-26-2.38-34.68-0.76
			c-38.63,7.23-64.76,55.67-148,59.97C217.03,651.05,164.33,574.78,188.76,464z"/>
		<path class="st3" d="M188.76,464c11.27-51.09,62-89.3,99.27-89.44c42-0.16,77.79,31.99,106,34.84
			c24.88,2.51,55.69-34.07,100-24.84c36,7.5,56,61.32,50,95.46c-11.13,63.36-40,101.19-80.32,108.51c-17.66,3.21-26-2.38-34.68-0.76
			c-38.63,7.23-64.76,55.67-148,59.97C217.03,651.05,164.33,574.78,188.76,464z"/>
	</g>
</g>
<g id="Shadow">
</g>
<g id="Device">
</g>
<g id="Policy">
</g>
<g id="Character">
	<rect x="586.38" y="619.65" class="st4" width="50.67" height="0.38"/>
	<rect x="442.19" y="623.8" class="st4" width="13.3" height="0.38"/>
	<rect x="555.49" y="605.44" class="st4" width="29.36" height="0.38"/>
	<rect x="29.04" y="608.01" class="st4" width="66.08" height="0.38"/>
	<rect x="108.73" y="608.01" class="st4" width="9.69" height="0.38"/>
	<rect x="149.91" y="614.47" class="st4" width="143.31" height="0.38"/>
	
		<ellipse id="_x3C_Path_x3E__00000054951147310405250840000003486650735584793485_" class="st5" cx="331.24" cy="645.96" rx="296.61" ry="17.32"/>
	<g>
		<path class="st6" d="M504.79,233.11h-49.81l-35.23,402.72h49.81c14.17,0,26.7-11.52,27.94-25.69l30.74-351.34
			C529.48,244.64,518.96,233.11,504.79,233.11z"/>
		<path class="st6" d="M494.63,233.11H326.05c-14.17,0-26.7,11.52-27.94,25.69l-30.74,351.34c-1.24,14.17,9.28,25.69,23.44,25.69
			H459.4c14.17,0,26.7-11.52,27.94-25.69l30.74-351.34C519.31,244.64,508.8,233.11,494.63,233.11z"/>
		<path class="st7" d="M494.63,233.11H326.05c-14.17,0-26.7,11.52-27.94,25.69l-30.74,351.34c-1.24,14.17,9.28,25.69,23.44,25.69
			H459.4c14.17,0,26.7-11.52,27.94-25.69l30.74-351.34C519.31,244.64,508.8,233.11,494.63,233.11z"/>
		<path class="st8" d="M493.91,241.34h-44.45c-2.62,0-5.08,1.72-6.06,4.23l0,0c-3.59,9.29-12.69,15.65-22.39,15.65h-26.28
			c-9.69,0-17.68-6.36-19.65-15.65v0c-0.53-2.51-2.69-4.23-5.31-4.23h-44.45c-9.64,0-18.14,7.82-18.99,17.46L275.6,610.14
			c-0.84,9.64,6.29,17.46,15.93,17.46h168.58c9.64,0,18.14-7.82,18.99-17.46l30.74-351.34
			C510.68,249.16,503.55,241.34,493.91,241.34z"/>
		<path class="st9" d="M451.91,432.19H333.93c-3.5,0-6.09-2.84-5.78-6.33l0.59-6.75c0.31-3.5,3.39-6.33,6.89-6.33h117.99
			c3.5,0,6.09,2.84,5.78,6.33l-0.59,6.75C458.5,429.35,455.41,432.19,451.91,432.19z"/>
		<path class="st9" d="M449.37,461.32H331.38c-3.5,0-6.09-2.84-5.78-6.33l0.59-6.75c0.31-3.5,3.39-6.33,6.89-6.33h117.99
			c3.5,0,6.09,2.84,5.78,6.33l-0.59,6.75C455.95,458.48,452.86,461.32,449.37,461.32z"/>
		<path class="st10" d="M416.07,247.92c-0.34,3.88-3.76,7.02-7.64,7.02s-6.75-3.14-6.41-7.02c0.34-3.88,3.76-7.02,7.64-7.02
			C413.54,240.9,416.41,244.05,416.07,247.92z"/>
		<path class="st10" d="M412.88,247.92c-0.19,2.12-2.05,3.84-4.17,3.84c-2.12,0-3.69-1.72-3.5-3.84c0.19-2.12,2.05-3.84,4.17-3.84
			C411.5,244.09,413.06,245.8,412.88,247.92z"/>
		<g>
			<g class="st11">
				<path class="st9" d="M473.16,259.64L473.16,259.64c-1.14,0-1.98-0.92-1.88-2.06l0.33-3.76c0.1-1.14,1.1-2.06,2.24-2.06l0,0
					c1.14,0,1.98,0.92,1.88,2.06l-0.33,3.76C475.29,258.72,474.29,259.64,473.16,259.64z"/>
				<path class="st9" d="M489.62,259.64L489.62,259.64c-1.14,0-1.98-0.92-1.88-2.06l0.77-8.83c0.1-1.14,1.1-2.06,2.24-2.06l0,0
					c1.14,0,1.98,0.92,1.88,2.06l-0.77,8.83C491.76,258.72,490.76,259.64,489.62,259.64z"/>
				<path class="st9" d="M481.39,259.64L481.39,259.64c-1.14,0-1.98-0.92-1.88-2.06l0.55-6.29c0.1-1.14,1.1-2.06,2.24-2.06l0,0
					c1.14,0,1.98,0.92,1.88,2.06l-0.55,6.29C483.53,258.72,482.53,259.64,481.39,259.64z"/>
			</g>
			<g class="st11">
				<path class="st9" d="M332.21,259.64h-10.33c-0.64,0-1.12-0.52-1.06-1.16l0.49-5.55c0.06-0.64,0.62-1.17,1.27-1.17h10.33
					c0.64,0,1.12,0.52,1.06,1.17l-0.49,5.55C333.42,259.12,332.85,259.64,332.21,259.64z"/>
				<path class="st9" d="M337,258.13L337,258.13c-0.64,0-1.12-0.52-1.06-1.16l0.22-2.54c0.06-0.64,0.62-1.16,1.27-1.16l0,0
					c0.64,0,1.12,0.52,1.06,1.16l-0.22,2.54C338.21,257.61,337.64,258.13,337,258.13z"/>
			</g>
		</g>
		
			<ellipse transform="matrix(0.7224 -0.6915 0.6915 0.7224 -133.5727 374.6254)" class="st9" cx="399.79" cy="353.67" rx="51.6" ry="47.28"/>
		<g>
			<path class="st6" d="M399.96,351.75c-12.98,0-23.94,4.94-24.88,15.67l-1.04,11.91h47.01l1.04-11.91
				C423.03,356.69,412.94,351.75,399.96,351.75z"/>
			<path class="st6" d="M400.39,346.85c6.02,0,8.8-4.88,9.33-10.91c0.53-6.02-1.4-10.91-7.42-10.91c-6.02,0-8.8,4.88-9.33,10.91
				C392.44,341.96,394.36,346.85,400.39,346.85z"/>
		</g>
		<g>
			<path class="st6" d="M446.53,422.13c-3.21,0-5.91,1.22-6.14,3.87l-0.26,2.94h11.61L452,426
				C452.23,423.35,449.74,422.13,446.53,422.13z"/>
			<path class="st6" d="M446.63,420.92c1.49,0,2.17-1.21,2.3-2.69c0.13-1.49-0.34-2.69-1.83-2.69c-1.49,0-2.17,1.21-2.3,2.69
				C444.67,419.71,445.15,420.92,446.63,420.92z"/>
		</g>
		<path class="st6" d="M410.78,490.44h-45.91c-5.36,0-9.33-4.35-8.86-9.71v0c0.47-5.36,5.2-9.71,10.56-9.71h45.91
			c5.36,0,9.33,4.35,8.86,9.71v0C420.87,486.1,416.14,490.44,410.78,490.44z"/>
		<path class="st6" d="M405.24,598.72h-49.13c-5.67,0-9.86-4.59-9.36-10.26l3.14-35.84c0.5-5.67,5.49-10.26,11.16-10.26h49.13
			c5.67,0,9.86,4.59,9.36,10.26l-3.14,35.84C415.9,594.13,410.91,598.72,405.24,598.72z"/>
		<g class="st12">
			<path class="st9" d="M390.09,561.68c0.3-3.41-2.22-6.17-5.63-6.17c-3.41,0-6.42,2.76-6.71,6.17c-0.18,2.03,0.66,3.82,2.07,4.94
				l-1.08,12.34c-0.18,2.03,1.32,3.67,3.35,3.67c2.03,0,3.81-1.64,3.99-3.67l1.08-12.34C388.76,565.5,389.91,563.71,390.09,561.68z"
				/>
		</g>
		<g>
			<path class="st6" d="M410.61,549.83h-6.33l1.55-17.73c0.93-10.65-6.98-19.32-17.63-19.32s-20.08,8.67-21.01,19.32l-1.55,17.73
				h-6.33l1.55-17.73c1.24-14.15,13.75-25.65,27.9-25.65c14.15,0,24.65,11.51,23.41,25.65L410.61,549.83z"/>
		</g>
		<path class="st6" d="M447.31,449.29l0.15-1.7c0.15-1.74-1.14-3.15-2.88-3.15c-1.74,0-3.28,1.41-3.43,3.15l-0.15,1.7
			c-0.69,0-1.31,0.56-1.37,1.26l-0.4,4.52c-0.06,0.69,0.45,1.26,1.15,1.26h6.3c0.69,0,1.31-0.56,1.37-1.26l0.4-4.52
			C448.51,449.85,448,449.29,447.31,449.29z M444.51,445.21c1.31,0,2.28,1.07,2.17,2.37l-0.15,1.7h-4.75l0.15-1.7
			C442.04,446.27,443.2,445.21,444.51,445.21z"/>
		<g>
			<path class="st13" d="M352.42,451.1l-2.2-0.45c-0.26-0.05-0.39-0.33-0.29-0.58l0.92-2.17c0.2-0.47-0.37-0.81-0.73-0.44
				l-1.66,1.71c-0.2,0.2-0.51,0.2-0.67,0l-1.36-1.71c-0.29-0.37-0.92-0.02-0.8,0.44l0.54,2.17c0.06,0.26-0.12,0.53-0.39,0.58
				l-2.28,0.45c-0.49,0.1-0.55,0.78-0.08,0.88l2.2,0.45c0.26,0.05,0.39,0.33,0.29,0.58l-0.92,2.17c-0.2,0.47,0.37,0.81,0.73,0.44
				l1.66-1.71c0.2-0.2,0.51-0.2,0.67,0l1.36,1.71c0.29,0.37,0.92,0.02,0.8-0.44l-0.54-2.17c-0.06-0.26,0.12-0.53,0.39-0.58
				l2.28-0.45C352.83,451.88,352.89,451.19,352.42,451.1z"/>
			<path class="st13" d="M366.9,451.1l-2.2-0.45c-0.26-0.05-0.39-0.33-0.29-0.58l0.92-2.17c0.2-0.47-0.37-0.81-0.73-0.44l-1.66,1.71
				c-0.2,0.2-0.51,0.2-0.67,0l-1.36-1.71c-0.29-0.37-0.92-0.02-0.8,0.44l0.54,2.17c0.06,0.26-0.12,0.53-0.39,0.58l-2.28,0.45
				c-0.49,0.1-0.55,0.78-0.08,0.88l2.2,0.45c0.26,0.05,0.39,0.33,0.29,0.58l-0.92,2.17c-0.2,0.47,0.37,0.81,0.73,0.44l1.66-1.71
				c0.2-0.2,0.51-0.2,0.67,0l1.36,1.71c0.29,0.37,0.92,0.02,0.8-0.44l-0.54-2.17c-0.06-0.26,0.12-0.53,0.39-0.58l2.28-0.45
				C367.31,451.88,367.37,451.19,366.9,451.1z"/>
			<path class="st13" d="M381.37,451.1l-2.2-0.45c-0.26-0.05-0.39-0.33-0.29-0.58l0.92-2.17c0.2-0.47-0.37-0.81-0.73-0.44
				l-1.66,1.71c-0.2,0.2-0.51,0.2-0.67,0l-1.36-1.71c-0.29-0.37-0.92-0.02-0.8,0.44l0.54,2.17c0.06,0.26-0.12,0.53-0.39,0.58
				l-2.28,0.45c-0.49,0.1-0.55,0.78-0.08,0.88l2.2,0.45c0.26,0.05,0.39,0.33,0.29,0.58l-0.92,2.17c-0.2,0.47,0.37,0.81,0.73,0.44
				l1.66-1.71c0.2-0.2,0.51-0.2,0.67,0l1.36,1.71c0.29,0.37,0.92,0.02,0.8-0.44l-0.54-2.17c-0.06-0.26,0.12-0.53,0.39-0.58
				l2.28-0.45C381.79,451.88,381.85,451.19,381.37,451.1z"/>
			<path class="st13" d="M395.85,451.1l-2.2-0.45c-0.26-0.05-0.39-0.33-0.29-0.58l0.92-2.17c0.2-0.47-0.37-0.81-0.73-0.44
				l-1.66,1.71c-0.2,0.2-0.51,0.2-0.67,0l-1.36-1.71c-0.29-0.37-0.92-0.02-0.8,0.44l0.54,2.17c0.06,0.26-0.12,0.53-0.39,0.58
				l-2.28,0.45c-0.49,0.1-0.55,0.78-0.08,0.88l2.2,0.45c0.26,0.05,0.39,0.33,0.29,0.58l-0.92,2.17c-0.2,0.47,0.37,0.81,0.73,0.44
				l1.66-1.71c0.2-0.2,0.51-0.2,0.67,0l1.36,1.71c0.29,0.37,0.92,0.02,0.8-0.44l-0.54-2.17c-0.06-0.26,0.12-0.53,0.39-0.58
				l2.28-0.45C396.26,451.88,396.32,451.19,395.85,451.1z"/>
			<path class="st13" d="M410.33,451.1l-2.2-0.45c-0.26-0.05-0.39-0.33-0.29-0.58l0.92-2.17c0.2-0.47-0.37-0.81-0.73-0.44
				l-1.66,1.71c-0.2,0.2-0.51,0.2-0.67,0l-1.36-1.71c-0.29-0.37-0.92-0.02-0.8,0.44l0.54,2.17c0.06,0.26-0.12,0.53-0.39,0.58
				l-2.28,0.45c-0.49,0.1-0.55,0.78-0.08,0.88l2.2,0.45c0.26,0.05,0.39,0.33,0.29,0.58l-0.92,2.17c-0.2,0.47,0.37,0.81,0.73,0.44
				l1.66-1.71c0.2-0.2,0.51-0.2,0.67,0l1.36,1.71c0.29,0.37,0.92,0.02,0.8-0.44l-0.54-2.17c-0.06-0.26,0.12-0.53,0.39-0.58
				l2.28-0.45C410.74,451.88,410.8,451.19,410.33,451.1z"/>
			<path class="st13" d="M424.81,451.1l-2.2-0.45c-0.26-0.05-0.39-0.33-0.29-0.58l0.92-2.17c0.2-0.47-0.37-0.81-0.73-0.44
				l-1.66,1.71c-0.2,0.2-0.51,0.2-0.67,0l-1.36-1.71c-0.29-0.37-0.92-0.02-0.8,0.44l0.54,2.17c0.06,0.26-0.12,0.53-0.39,0.58
				l-2.28,0.45c-0.49,0.1-0.55,0.78-0.08,0.88l2.2,0.45c0.26,0.05,0.4,0.33,0.29,0.58l-0.92,2.17c-0.2,0.47,0.37,0.81,0.73,0.44
				l1.66-1.71c0.2-0.2,0.51-0.2,0.67,0l1.36,1.71c0.29,0.37,0.92,0.02,0.8-0.44l-0.54-2.17c-0.06-0.26,0.12-0.53,0.39-0.58
				l2.28-0.45C425.22,451.88,425.28,451.19,424.81,451.1z"/>
		</g>
		<g>
			<path class="st13" d="M389.91,419.42h-27.18c-1.69,0-3.18,1.37-3.33,3.06c-0.15,1.69,1.1,3.06,2.79,3.06h27.18
				c1.69,0,3.18-1.37,3.33-3.06C392.85,420.79,391.6,419.42,389.91,419.42z"/>
			<path class="st13" d="M417.5,419.42h-15.77c-1.69,0-3.18,1.37-3.33,3.06c-0.15,1.69,1.1,3.06,2.79,3.06h15.77
				c1.69,0,3.18-1.37,3.33-3.06C420.44,420.79,419.19,419.42,417.5,419.42z"/>
		</g>
		<path class="st13" d="M438.33,558.1c-10.25,4.09-19.23,10.06-25.38,16.85c-3.61-3.07-8.73-5.2-14.88-6.17l-0.72-0.11l-0.32,3.61
			l0.4,0.15c6.07,2.29,11,6.36,14.28,11.76l0.51,0.85l0.57-0.91c6.3-10.09,15.49-18.55,25.88-23.8l0.35-0.18l0.21-2.4L438.33,558.1z
			"/>
	</g>
	<path class="st14" d="M301.63,256.9c-1.91,3.36-3.17,7.11-3.52,11.08l-22.78,260.41h70.49l14.16-54.3l-4.66-54.3l14.16-54.3
		l-4.66-54.3l14.16-54.3H301.63z"/>
	<g>
		<g>
			<polygon class="st6" points="358.7,295.9 372.86,241.6 194.6,241.6 180.44,295.9 185.1,350.2 170.94,404.49 175.6,458.79 
				161.44,513.09 339.7,513.09 353.86,458.79 349.2,404.49 363.36,350.2 			"/>
			<polygon class="st15" points="358.7,295.9 372.86,241.6 194.6,241.6 180.44,295.9 185.1,350.2 170.94,404.49 175.6,458.79 
				161.44,513.09 339.7,513.09 353.86,458.79 349.2,404.49 363.36,350.2 			"/>
			<polygon class="st16" points="358.7,295.9 180.44,295.9 194.6,241.6 372.86,241.6 			"/>
			<polygon class="st16" points="349.2,404.49 170.94,404.49 185.1,350.2 363.36,350.2 			"/>
			<polygon class="st16" points="339.7,513.09 161.44,513.09 175.6,458.79 353.86,458.79 			"/>
		</g>
		<path class="st14" d="M334.84,318.59c-1.53,0.48-3.49,0.77-5.63,0.77c-3.15,0-5.91-0.62-7.49-1.56c-0.43-0.26-0.91-0.39-1.38-0.39
			l0,0c-0.44,0-0.88,0.12-1.29,0.35c-0.03,0.02-0.06,0.02-0.09,0.04h0l0,0c-0.02,0.01-0.04,0.02-0.06,0.03
			c-0.58,0.34-1.32,0.64-2.17,0.88c-1.47,0.41-3.29,0.65-5.25,0.65c-0.53,0-1.06-0.02-1.57-0.05c-1.53-0.1-2.92-0.35-4.06-0.71
			c-0.2-0.06-0.4-0.1-0.6-0.11c-1.39-0.09-2.63,0.97-2.63,2.45v0v1.66h-69.29c-5.36,0-9.71,4.35-9.71,9.71v9.79
			c0,5.36,4.35,9.71,9.71,9.71h78.83c0.17,0,0.34-0.02,0.51-0.03c0.85,0.7,1.74,1.41,2.67,2.12c1.12,0.85,2.31,1.71,3.54,2.61
			c0.86,0.63,2.05,0.63,2.91,0c9.91-7.19,16.28-12.15,16.28-25.77v-9.8C338.08,319.24,336.45,318.09,334.84,318.59z"/>
		<g>
			<path class="st6" d="M310.66,346.39h-78.83c-5.36,0-9.71-4.35-9.71-9.71v-9.79c0-5.36,4.35-9.71,9.71-9.71h78.83
				c5.36,0,9.71,4.35,9.71,9.71v9.79C320.36,342.05,316.02,346.39,310.66,346.39z"/>
			<g>
				<g>
					<path class="st6" d="M327.71,313.96c-3.15,0-5.91-0.62-7.48-1.56c-0.86-0.52-1.9-0.52-2.76,0c-1.57,0.94-4.34,1.56-7.48,1.56
						c-2.14,0-4.1-0.29-5.63-0.77c-1.61-0.5-3.23,0.65-3.23,2.33v9.8c0,13.62,6.36,18.58,16.28,25.77c0.86,0.63,2.05,0.63,2.91,0
						c9.91-7.19,16.28-12.15,16.28-25.77v-9.8c0-1.68-1.63-2.83-3.23-2.33C331.81,313.68,329.85,313.96,327.71,313.96z"/>
					<path class="st7" d="M327.71,313.96c-3.15,0-5.91-0.62-7.48-1.56c-0.86-0.52-1.9-0.52-2.76,0c-1.57,0.94-4.34,1.56-7.48,1.56
						c-2.14,0-4.1-0.29-5.63-0.77c-1.61-0.5-3.23,0.65-3.23,2.33v9.8c0,13.62,6.36,18.58,16.28,25.77c0.86,0.63,2.05,0.63,2.91,0
						c9.91-7.19,16.28-12.15,16.28-25.77v-9.8c0-1.68-1.63-2.83-3.23-2.33C331.81,313.68,329.85,313.96,327.71,313.96z"/>
					<path class="st17" d="M317.46,312.4c-1.57,0.94-4.34,1.56-7.48,1.56c-2.14,0-4.1-0.29-5.63-0.77c-1.61-0.5-3.23,0.65-3.23,2.33
						v9.8c0,13.62,6.36,18.58,16.28,25.77c0.43,0.31,0.94,0.47,1.45,0.47v-39.55C318.37,312.02,317.9,312.14,317.46,312.4z"/>
				</g>
				<path class="st13" d="M333.05,322.65c-6.41,2.65-11.89,6.52-15.48,10.91c-2.51-1.99-5.95-3.37-9.98-4l-0.47-0.07v2.34l0.27,0.1
					c4.06,1.48,7.49,4.12,9.91,7.61l0.38,0.55l0.32-0.59c3.51-6.54,8.98-12.01,15.41-15.42l0.22-0.12v-1.55L333.05,322.65z"/>
			</g>
		</g>
		<g>
			<path class="st6" d="M369.71,256.87h-6.76c-3.75,0-6.53-3.04-6.2-6.79l0.59-6.76c0.33-3.75,3.63-6.79,7.39-6.79h6.76
				c3.75,0,6.53,3.04,6.2,6.79l-0.59,6.76C376.77,253.83,373.46,256.87,369.71,256.87z"/>
			<polygon class="st9" points="372.52,243.3 371.06,241.69 367.36,245.09 364.26,241.69 362.51,243.3 365.61,246.7 361.92,250.09 
				363.39,251.7 367.08,248.3 370.18,251.7 371.93,250.09 368.83,246.7 			"/>
		</g>
	</g>
	<g>
		<g>
			<path class="st18" d="M218.6,315.21c3.92,4.26,7.67,8.68,11.37,13.14c3.7,4.45,7.32,8.99,10.88,13.56
				c0.16,0.2,0.09,0.12,0.13,0.18c0.02,0.03,0.02,0.07,0.04,0.09c0.04,0.04,0.06,0.12,0.11,0.16c0.07,0.11,0.17,0.19,0.28,0.3
				c0.22,0.19,0.51,0.34,0.85,0.4c0.16,0.03,0.34,0.05,0.51,0.03c0.1,0.01,0.18-0.02,0.28-0.02c0.05,0,0.09-0.03,0.14-0.03
				c0.08-0.03,0.03,0.04,0.24-0.09l3.83-2.08c5.14-2.72,10.32-5.38,15.68-7.77l4.48,5.55c-4.32,3.97-8.81,8.94-13.35,12.58
				l-3.43,2.69c-0.09,0.08-0.46,0.32-0.69,0.48c-0.27,0.17-0.52,0.35-0.8,0.5c-0.56,0.31-1.12,0.61-1.71,0.85
				c-1.17,0.51-2.43,0.83-3.7,1.03c-2.55,0.38-5.2,0.12-7.67-0.76c-1.23-0.44-2.43-1.04-3.52-1.79c-0.56-0.36-1.07-0.78-1.57-1.21
				c-0.26-0.21-0.48-0.45-0.72-0.68l-0.61-0.62c-4.05-4.15-8.05-8.34-11.96-12.61c-3.92-4.27-7.79-8.58-11.48-13.04L218.6,315.21z"
				/>
			<path class="st18" d="M260.85,336.46l3.57-11.45l9.39,4.68c0,0-1.37,8.36-8.2,9.81L260.85,336.46z"/>
			<polygon class="st18" points="268.18,321.83 276.65,324.16 273.81,329.68 264.42,325 			"/>
		</g>
		<g>
			<path class="st18" d="M169.22,318.33c-1.02,4.87-2.27,9.68-3.58,14.48c-1.3,4.8-2.72,9.57-4.2,14.33l-0.55,1.78l-0.28,0.89
				c-0.06,0.19-0.1,0.24-0.15,0.37c-0.17,0.45-0.27,0.94-0.29,1.45c-0.03,1.02,0.22,2.15,0.88,3.14c0.06,0.16,0.58,0.71,0.99,1.16
				l1.27,1.38l2.5,2.8c1.65,1.89,3.29,3.79,4.85,5.79l-5.33,6.17c-2.2-1.25-4.32-2.6-6.43-3.96l-3.14-2.07l-1.55-1.06
				c-0.53-0.37-0.95-0.61-1.8-1.31c-2.91-2.47-5.08-5.97-5.88-9.86c-0.41-1.94-0.51-3.97-0.28-5.97c0.06-0.48,0.15-1.04,0.22-1.45
				l0.16-0.92l0.32-1.84c0.86-4.91,1.77-9.8,2.81-14.66c1.03-4.87,2.12-9.72,3.43-14.51L169.22,318.33z"/>
			<path class="st18" d="M165.44,365.47l6.31-3.23l2.78,10.73c0,0-5.07,1.94-8.99-0.55L165.44,365.47z"/>
			<polygon class="st18" points="180.48,358.81 180.76,368.65 173.72,373.26 171.27,362.45 			"/>
		</g>
		<path class="st19" d="M201.11,267.75c0.15,0.76,0.68,1.29,1.18,1.19c0.5-0.1,0.77-0.8,0.62-1.56s-0.68-1.29-1.18-1.19
			C201.24,266.3,200.96,266.99,201.11,267.75z"/>
		<path class="st20" d="M201.73,269.06c0,0,2.61,4.02,4.94,5.75c-1.09,1.52-3.48,1.42-3.48,1.42L201.73,269.06z"/>
		<path class="st19" d="M197.48,264.1c-0.11,0-0.22-0.04-0.31-0.12c-0.18-0.17-0.2-0.46-0.02-0.64c1.71-1.85,3.78-1.52,3.87-1.5
			c0.25,0.04,0.41,0.28,0.37,0.52c-0.04,0.25-0.28,0.41-0.52,0.37l0,0c-0.07-0.01-1.69-0.25-3.05,1.22
			C197.73,264.06,197.61,264.1,197.48,264.1z"/>
		<path class="st18" d="M179.05,278.41c1.69,7.02,3.37,19.87-2.65,24.56c0,0,2.35,7.12,18.35,7.12c17.59,0,8.41-4.58,8.41-4.58
			c-9.6-1.87-9.35-10.21-7.68-15.66L179.05,278.41z"/>
		<path class="st19" d="M174.53,304.27c-1.05-1.95-2.2-4.18,0.18-4.88c2.63-0.77,19.5-2.2,24.46-0.75
			c-1.52,2.71,1.06,6.04,1.06,6.04L174.53,304.27z"/>
		<polygon class="st18" points="188.5,632.53 199.54,632.53 200.64,610.32 189.6,610.32 		"/>
		<polygon class="st18" points="118.46,629.47 129.64,630.07 136.43,608.18 125.25,607.59 		"/>
		<path class="st19" d="M129.3,629.18l-10.53-2.28c-0.38-0.08-0.77,0.11-0.94,0.47l-3.66,7.93c-0.38,0.82,0.12,1.79,1.01,1.96
			c3.69,0.73,5.52,0.9,10.16,1.91c2.85,0.62,9.28,2.18,13.22,3.04c3.85,0.83,5.29-2.93,3.76-3.63c-6.88-3.14-9.76-5.91-11.62-8.49
			C130.36,629.62,129.86,629.3,129.3,629.18z"/>
		<path class="st19" d="M198.95,631.42h-10.48c-0.39,0-0.73,0.27-0.82,0.66l-1.89,8.53c-0.2,0.88,0.47,1.72,1.38,1.71
			c3.78-0.06,9.24-0.29,13.99-0.29c5.55,0,10.35,0.3,16.86,0.3c3.94,0,5.03-3.98,3.38-4.34c-7.5-1.64-13.63-1.82-20.12-5.82
			C200.56,631.74,199.78,631.42,198.95,631.42z"/>
		<path class="st19" d="M156.42,306.22c-8.33,3.96-10.59,27.97-10.59,27.97l20.61,9.52c0,0,5.11-7.53,5.51-19.38
			C172.35,311.91,164.93,302.17,156.42,306.22z"/>
		<path class="st21" d="M167.6,321.02c-3.72,5.77-3.37,14.71-2.08,22.26l0.91,0.43c0,0,5.12-7.54,5.51-19.39
			c0.02-0.74,0.02-1.48-0.01-2.19L167.6,321.02z"/>
		<g>
			<path class="st22" d="M213.92,305.63c0,0,10.21,11.53,0.57,82.91c-15.46,0-43.78,0-51.3,0c-0.35-7.88,4.59-46.29-3-83.4
				c0,0,8.79-1.76,17.17-2.17c6.56-0.32,16.05-0.53,21.81,0C206.76,303.67,213.92,305.63,213.92,305.63z"/>
			<path class="st23" d="M213.92,305.63c0,0,10.21,11.53,0.57,82.91c-15.46,0-43.78,0-51.3,0c-0.35-7.88,4.59-46.29-3-83.4
				c0,0,8.79-1.76,17.17-2.17c6.56-0.32,16.05-0.53,21.81,0C206.76,303.67,213.92,305.63,213.92,305.63z"/>
		</g>
		<path class="st14" d="M218.4,327.45l-0.2-0.17l-10.2-5.45c-1.04,15.71,5.99,25.56,10.16,29.87
			C218.74,341.63,218.73,333.69,218.4,327.45z"/>
		<polygon class="st14" points="200.63,610.33 200.07,621.78 189.03,621.78 189.59,610.33 		"/>
		<polygon class="st14" points="125.25,607.6 136.43,608.19 132.92,619.47 121.74,618.88 		"/>
		<path class="st18" d="M175.5,271.28c2.46,9.2,3.44,14.7,9.11,18.53c8.54,5.75,19.16-0.85,19.49-10.6
			c0.3-8.77-3.78-22.34-13.65-24.19C180.74,253.2,173.04,262.09,175.5,271.28z"/>
		<path class="st19" d="M196.29,388.54c0,0-10.89,73.3-16.86,100.77c-6.54,30.07-41.64,129.57-41.64,129.57l-17.17-3.72
			c0,0,22-81.08,27.5-123.13c2.14-16.41,4.73-42.85,8-64.91c3.17-21.35,7.06-38.59,7.06-38.59H196.29z"/>
		<path class="st22" d="M141.9,613.15c0.07,0.02-3.2,6.21-3.2,6.21l-19.32-4.18l1.63-5.81L141.9,613.15z"/>
		<path class="st24" d="M141.9,613.15c0.07,0.02-3.2,6.21-3.2,6.21l-19.32-4.18l1.63-5.81L141.9,613.15z"/>
		<path class="st12" d="M189.41,414.66c-12.59,2.47-11.26,49.41-9.74,73.55c3.63-17.07,8.94-49.9,12.57-73.21
			C191.41,414.58,190.47,414.45,189.41,414.66z"/>
		<path class="st19" d="M214.49,388.54c0,0,5.12,71.72,4.08,100.97c-1.09,30.43-15.51,130.05-15.51,130.05H186.8
			c0,0-0.6-97.84-1.32-127.73c-0.79-32.58-4.72-103.29-4.72-103.29H214.49z"/>
		<path class="st22" d="M206.18,613.09c0.07,0-0.92,6.75-0.92,6.75H185.5l-0.53-6.02L206.18,613.09z"/>
		<path class="st24" d="M206.18,613.09c0.07,0-0.92,6.75-0.92,6.75H185.5l-0.53-6.02L206.18,613.09z"/>
		<path class="st19" d="M207.93,319.07c0,19.25,10.24,27.17,10.24,27.17l16.65-16.27c0,0-5.66-9.75-13.44-18.71
			C211.76,300.2,207.93,306.69,207.93,319.07z"/>
		<path class="st14" d="M203.53,282.7c-0.42,1.18-1.53,3.18-4.32,3.98c-4.06,1.16-4.12,4.61-4.12,4.61l0.05,0.06
			C199.02,290.06,202.25,286.86,203.53,282.7z"/>
		<path class="st19" d="M199.21,253.01c3.43-4.32-1.85-4.53-1.85-4.53c1.37-5.16-4.8-2.38-4.8-2.38c-3.71-5.11-5.8,1.11-5.8,1.11
			c-3.84-4.33-4.55,2.74-4.55,2.74c-3.85-5.49-5.82,2.43-5.82,2.43c-3.55-5.7-5.72,1.73-5.72,1.73c-7.33-2.62-3.85,4.99-3.85,4.99
			c-6.26,0.18-1.24,5.01-1.24,5.01c-7.49,0.02-0.89,4.31-0.89,4.31c-5.95,3.9,1.52,4.95,1.52,4.95c-4.85,7.59,3.48,4.78,3.48,4.78
			c-3.38,7.51,4.11,4.2,4.11,4.2c-0.49,7.25,3.7,5.28,5.71,3.93c0.39,1.46,1.11,3.01,2.46,3.18c2.61,0.34,3.12-4.59,3.12-4.59
			s2.43,1.89,4.46,0.86c2.03-1.02,1.27-3.61,1.27-3.61s1.56,1.16,2.98,0.05c0.87-0.68,0.88-5.55-0.23-7.26l3.98-1.56
			c0,0,2.95-0.42,1.64-4.31c-1.32-3.9-0.2-6.97-0.2-6.97c4.5-2.11,0.81-4.64,0.81-4.64C205.01,254.08,199.21,253.01,199.21,253.01z"
			/>
		<path class="st18" d="M191.14,271.67c0.63,2.41,2.21,4.49,3.87,5.72c2.5,1.86,4.36,0.03,4.18-2.8c-0.16-2.54-1.65-6.57-4.4-7.33
			C192.08,266.53,190.43,268.91,191.14,271.67z"/>
	</g>
	<g>
		<rect x="1776.27" y="619.65" class="st4" width="50.67" height="0.38"/>
		<rect x="1632.08" y="623.8" class="st4" width="13.3" height="0.38"/>
		<rect x="1745.38" y="605.44" class="st4" width="29.36" height="0.38"/>
		<rect x="1218.93" y="608.01" class="st4" width="66.08" height="0.38"/>
		<rect x="1298.63" y="608.01" class="st4" width="9.69" height="0.38"/>
		<rect x="1339.8" y="614.47" class="st4" width="143.31" height="0.38"/>
		<g>
			<path class="st4" d="M1503.39,526.8h-295.41c-4.81,0-8.73-3.92-8.73-8.73V102.82c0-4.81,3.92-8.73,8.73-8.73h295.41
				c4.81,0,8.73,3.92,8.73,8.73v415.24C1512.12,522.88,1508.2,526.8,1503.39,526.8z M1207.98,94.47c-4.6,0-8.35,3.75-8.35,8.35
				v415.24c0,4.6,3.75,8.35,8.35,8.35h295.41c4.6,0,8.35-3.75,8.35-8.35V102.82c0-4.6-3.75-8.35-8.35-8.35H1207.98z"/>
			<path class="st4" d="M1834.28,526.8h-295.41c-4.81,0-8.73-3.92-8.73-8.73V102.82c0-4.81,3.92-8.73,8.73-8.73h295.41
				c4.82,0,8.73,3.92,8.73,8.73v415.24C1843.01,522.88,1839.09,526.8,1834.28,526.8z M1538.87,94.47c-4.6,0-8.35,3.75-8.35,8.35
				v415.24c0,4.6,3.75,8.35,8.35,8.35h295.41c4.6,0,8.35-3.75,8.35-8.35V102.82c0-4.6-3.75-8.35-8.35-8.35H1538.87z"/>
		</g>
		<rect x="1138.68" y="595.02" class="st4" width="764.91" height="0.38"/>
		<g>
			<path class="st25" d="M1321.23,491.53c-1.29-14.77-16.38-20.31-34.25-18.74c-17.87,1.56-31.77,9.63-30.47,24.4L1321.23,491.53z"
				/>
			<path class="st25" d="M1286.39,466.04c8.29-0.73,10.94-7.73,10.22-16.03c-0.73-8.29-4.55-14.73-12.84-14.01
				c-8.29,0.73-10.94,7.73-10.22,16.03C1274.27,460.32,1278.1,466.77,1286.39,466.04z"/>
		</g>
		<g>
			<g>
				<path class="st5" d="M1658.97,176.73c0.4,4.57-2.98,8.61-7.56,9.01c-4.57,0.4-8.61-2.98-9.01-7.56
					c-0.4-4.57,2.98-8.61,7.56-9.01C1654.53,168.77,1658.57,172.16,1658.97,176.73z"/>
				<path class="st5" d="M1704.97,172.7c0.4,4.57-2.98,8.61-7.56,9.01c-4.57,0.4-8.61-2.98-9.01-7.56c-0.4-4.57,2.98-8.61,7.56-9.01
					C1700.54,164.75,1704.57,168.13,1704.97,172.7z"/>
				<path class="st5" d="M1750.98,168.68c0.4,4.57-2.98,8.61-7.56,9.01s-8.61-2.98-9.01-7.56c-0.4-4.57,2.98-8.61,7.56-9.01
					C1746.55,160.72,1750.58,164.11,1750.98,168.68z"/>
				<path class="st5" d="M1663.07,223.62c0.4,4.57-2.98,8.61-7.56,9.01c-4.57,0.4-8.61-2.98-9.01-7.56
					c-0.4-4.57,2.98-8.61,7.56-9.01C1658.64,215.66,1662.67,219.05,1663.07,223.62z"/>
				<path class="st5" d="M1709.08,219.6c0.4,4.57-2.98,8.61-7.56,9.01c-4.57,0.4-8.61-2.98-9.01-7.56c-0.4-4.57,2.98-8.61,7.56-9.01
					C1704.64,211.64,1708.68,215.02,1709.08,219.6z"/>
				<path class="st5" d="M1755.08,215.57c0.4,4.57-2.98,8.61-7.56,9.01c-4.57,0.4-8.61-2.98-9.01-7.56
					c-0.4-4.57,2.98-8.61,7.56-9.01C1750.65,207.61,1754.68,211,1755.08,215.57z"/>
				<path class="st5" d="M1667.17,270.51c0.4,4.57-2.98,8.61-7.56,9.01c-4.57,0.4-8.61-2.98-9.01-7.56
					c-0.4-4.57,2.98-8.61,7.56-9.01S1666.77,265.94,1667.17,270.51z"/>
				<path class="st5" d="M1713.18,266.49c0.4,4.57-2.98,8.61-7.56,9.01s-8.61-2.98-9.01-7.56c-0.4-4.57,2.98-8.61,7.56-9.01
					C1708.75,258.53,1712.78,261.92,1713.18,266.49z"/>
				<path class="st5" d="M1759.18,262.46c0.4,4.57-2.98,8.61-7.56,9.01c-4.57,0.4-8.61-2.98-9.01-7.56
					c-0.4-4.57,2.98-8.61,7.56-9.01C1754.75,254.51,1758.78,257.89,1759.18,262.46z"/>
			</g>
			<g>
				<path class="st26" d="M1749.24,265.17l-94.52,8.27l83.81-101.84l-85.87,7.51c-1,0.09-1.89-0.65-1.98-1.66l0,0
					c-0.09-1,0.65-1.89,1.66-1.98l94.52-8.27l-83.81,101.84l85.87-7.51c1-0.09,1.89,0.65,1.98,1.66l0,0
					C1750.99,264.19,1750.25,265.08,1749.24,265.17z"/>
			</g>
		</g>
		<g>
			<path class="st25" d="M1750.69,446.95c-0.31-0.9-1.12-1.57-2.07-1.63c-4.34-0.29-8-1.91-10.9-4.82c-3.78-3.8-6-9.57-6.36-16.43
				c-0.07-1.28-1.14-2.27-2.42-2.28h0c-1.42-0.01-2.55,1.19-2.47,2.6c0.44,8.04,3.16,14.92,7.78,19.57
				c3.61,3.63,8.27,5.75,13.58,6.22c0.09,0.01,0.21,0.02,0.35,0.03C1749.94,450.33,1751.27,448.62,1750.69,446.95z"/>
			<g>
				<g>
					<path class="st25" d="M1745.81,476.31c-20.28-1.77-34.9-15.59-39.52-37.16c-0.3-1.38,0.58-2.73,1.97-2.97l0,0
						c1.28-0.22,2.53,0.59,2.8,1.86c4.15,19.39,17.16,31.81,35.18,33.39c19.76,1.73,40.98-11.27,44.79-44.05
						c0.15-1.33,1.31-2.31,2.64-2.19l0,0c1.36,0.12,2.39,1.34,2.22,2.69C1792.24,458.79,1771.92,478.6,1745.81,476.31z"/>
				</g>
				<g>
					<path class="st25" d="M1707.55,417.66L1707.55,417.66c-1.36-0.12-2.39-1.34-2.22-2.69c3.64-30.9,23.96-50.71,50.08-48.42
						c22.88,2,38.31,19.14,40.72,44.94c0.13,1.36-0.93,2.55-2.3,2.63l0,0c-1.33,0.08-2.46-0.93-2.58-2.25
						c-2.21-23.25-15.94-38.66-36.26-40.44c-19.76-1.73-40.98,11.27-44.79,44.05C1710.04,416.8,1708.88,417.78,1707.55,417.66z"/>
				</g>
				<g>
					<path class="st25" d="M1746.8,463.2c-3.77-0.33-7.3-1.21-10.55-2.63c-1.32-0.58-1.86-2.17-1.17-3.43l0,0
						c0.6-1.1,1.94-1.58,3.09-1.07c3.05,1.34,6.42,2.13,10.06,2.33c14.99,0.86,30.81-9.76,32.36-35.41
						c0.96-15.8-4.46-28.56-14.56-34.66c-1.08-0.65-1.49-2.02-0.93-3.16l0,0c0.63-1.29,2.24-1.77,3.47-1.02
						c11.69,7.06,17.97,21.46,16.9,39.14c-1.5,24.73-16.93,41.18-37.52,40C1747.56,463.26,1747.18,463.24,1746.8,463.2z"/>
				</g>
				<g>
					<path class="st25" d="M1725,447.95c-1.18,0.81-2.8,0.43-3.52-0.81c-4.34-7.5-6.37-17.17-5.74-27.56
						c1.43-23.66,15.61-39.74,34.88-40.06c1.43-0.02,2.58,1.17,2.5,2.6l0,0.01c-0.07,1.27-1.11,2.27-2.38,2.3
						c-14.28,0.28-28.63,11.08-30.11,35.45c-0.57,9.46,1.24,18.19,5.12,24.87C1726.39,445.83,1726.05,447.23,1725,447.95
						L1725,447.95z"/>
				</g>
				<g>
					<path class="st25" d="M1758.45,445.94L1758.45,445.94c-0.5-1.13-0.06-2.44,1-3.08c6.43-3.87,10.38-12,10.45-21.8
						c0.05-7.85-2.22-14.49-6.41-18.7c-3.23-3.25-7.41-4.88-12.42-4.87c-7.54,0.02-13.65,4.15-17.03,11.42
						c-0.53,1.14-1.86,1.69-3.04,1.25l0,0c-1.35-0.5-1.99-2.05-1.38-3.35c4.19-8.93,12.04-14.2,21.44-14.22
						c6.27-0.01,11.77,2.17,15.9,6.31c5.12,5.14,7.9,13.02,7.84,22.18c-0.08,11.56-4.95,21.26-12.88,26
						C1760.67,447.84,1759.04,447.28,1758.45,445.94z"/>
				</g>
				<g>
					<path class="st25" d="M1740.82,427.96c-1.39,0.56-2.95-0.25-3.3-1.71c-0.16-0.66-0.3-1.35-0.4-2.05
						c-1.38-9.16,3.54-17.13,11.45-18.54c4.08-0.73,7.72,0.23,10.51,2.71c1.13,1.01,1.04,2.81-0.19,3.69l-0.15,0.11
						c-0.93,0.66-2.15,0.51-3.01-0.23c-1.66-1.42-3.77-1.92-6.29-1.47c-6.03,1.08-8.32,7.35-7.47,12.99
						c0.08,0.55,0.19,1.08,0.31,1.59C1742.57,426.27,1741.97,427.5,1740.82,427.96L1740.82,427.96z"/>
				</g>
				<g>
					<path class="st25" d="M1748.91,437.38c-0.01,0-0.01,0-0.02,0c-1.69-0.15-2.62-2.04-1.72-3.48l0.21-0.33
						c0.45-0.72,1.26-1.11,2.1-1.06c0.72,0.05,1.49,0,2.3-0.14c5.26-0.94,7.68-5.84,7.64-10.82c-0.01-1.24,0.85-2.32,2.08-2.5l0,0
						c1.44-0.22,2.79,0.85,2.82,2.3c0.15,7.98-4.55,14.57-11.68,15.84C1751.36,437.42,1750.11,437.48,1748.91,437.38z"/>
				</g>
				<g>
					<path class="st25" d="M1750,428.34c-2.61-0.23-4.55-1.98-5.26-4.49c-0.41-1.45,0.81-2.86,2.31-2.73l0.56,0.05
						c0.87,0.08,1.59,0.67,1.88,1.5c0.14,0.4,0.41,0.75,0.92,0.79c1.18,0.1,1.38-1.59,1.41-1.92c0.02-0.24,0.07-1.18-0.33-1.73
						c-0.39-0.54-0.66-1.16-0.6-1.83l0,0c0.19-2.18,2.94-3.05,4.33-1.36c1.1,1.34,1.67,3.22,1.48,5.35
						C1756.37,425.97,1753.54,428.65,1750,428.34z"/>
				</g>
				<g>
					<path class="st25" d="M1703.99,373.59L1703.99,373.59c-1.35-0.12-2.34-1.31-2.23-2.65l1.86-21.21l21.21,1.86
						c1.35,0.12,2.34,1.31,2.23,2.65l0,0c-0.12,1.35-1.31,2.34-2.65,2.23l-16.33-1.43l-1.43,16.33
						C1706.53,372.71,1705.34,373.71,1703.99,373.59z"/>
				</g>
				<g>
					<path class="st25" d="M1804.85,382.41L1804.85,382.41c-1.35-0.12-2.34-1.31-2.23-2.65l1.43-16.33l-16.33-1.43
						c-1.35-0.12-2.34-1.31-2.23-2.65l0,0c0.12-1.35,1.31-2.34,2.65-2.23l21.21,1.86l-1.86,21.21
						C1807.39,381.53,1806.2,382.53,1804.85,382.41z"/>
				</g>
				<g>
					<path class="st25" d="M1797.33,496.46l-21.21-1.86c-1.35-0.12-2.34-1.31-2.23-2.65l0,0c0.12-1.35,1.31-2.34,2.65-2.23
						l16.33,1.43l1.43-16.33c0.12-1.35,1.31-2.34,2.65-2.23l0,0c1.35,0.12,2.34,1.31,2.23,2.65L1797.33,496.46z"/>
				</g>
				<g>
					<path class="st25" d="M1712.81,489.06l-21.21-1.86l1.86-21.21c0.12-1.35,1.31-2.34,2.65-2.23l0,0
						c1.35,0.12,2.34,1.31,2.23,2.65l-1.43,16.33l16.33,1.43c1.35,0.12,2.34,1.31,2.23,2.65l0,0
						C1715.34,488.19,1714.16,489.18,1712.81,489.06z"/>
				</g>
			</g>
		</g>
		<g>
			<path class="st27" d="M1253,443.16L1253,443.16c-0.83,0.07-1.56-0.54-1.63-1.37l-1.14-13.04l13.04-1.14
				c0.83-0.07,1.56,0.54,1.63,1.37l0,0c0.07,0.83-0.54,1.56-1.37,1.63l-10.04,0.88l0.88,10.04
				C1254.44,442.35,1253.83,443.08,1253,443.16z"/>
		</g>
		<g>
			<path class="st27" d="M1315.01,437.73L1315.01,437.73c-0.83,0.07-1.56-0.54-1.63-1.37l-0.88-10.04l-10.04,0.88
				c-0.83,0.07-1.56-0.54-1.63-1.37l0,0c-0.07-0.83,0.54-1.56,1.37-1.63l13.04-1.14l1.14,13.04
				C1316.45,436.93,1315.84,437.66,1315.01,437.73z"/>
		</g>
		<g>
			<path class="st27" d="M1321.44,493.89l-13.04,1.14c-0.83,0.07-1.56-0.54-1.63-1.37l0,0c-0.07-0.83,0.54-1.56,1.37-1.63
				l10.04-0.88l-0.88-10.04c-0.07-0.83,0.54-1.56,1.37-1.63l0,0c0.83-0.07,1.56,0.54,1.63,1.37L1321.44,493.89z"/>
		</g>
		<g>
			<path class="st27" d="M1269.47,498.44l-13.04,1.14l-1.14-13.04c-0.07-0.83,0.54-1.56,1.37-1.63l0,0
				c0.83-0.07,1.56,0.54,1.63,1.37l0.88,10.04l10.04-0.88c0.83-0.07,1.56,0.54,1.63,1.37l0,0
				C1270.91,497.63,1270.3,498.36,1269.47,498.44z"/>
		</g>
		<path class="st4" d="M1313.97,225.65l-49.92,4.37l-1.02-11.68c-1.06-12.12,7.94-22.84,20.05-23.9
			c12.12-1.06,22.84,7.94,23.9,20.05l0.59,6.79l7.2-0.63l-0.59-6.79c-1.41-16.09-15.64-28.03-31.73-26.63
			c-16.09,1.41-28.03,15.64-26.63,31.73l1.03,11.75c-5.81,1.13-9.94,6.49-9.42,12.52l3.57,40.76c0.56,6.44,6.25,11.21,12.69,10.65
			l55.88-4.89c6.44-0.56,11.21-6.25,10.65-12.69l-3.57-40.76C1326.09,229.85,1320.41,225.08,1313.97,225.65z M1292.76,257.06
			l1.23,14.04c0.2,2.3-1.5,4.33-3.81,4.54c-2.3,0.2-4.33-1.5-4.54-3.81l-1.23-14.04c-1.83-1.13-3.14-3.06-3.34-5.37
			c-0.34-3.88,2.53-7.3,6.41-7.64c3.88-0.34,7.3,2.53,7.64,6.41C1295.32,253.49,1294.37,255.62,1292.76,257.06z"/>
		<g>
			<path class="st25" d="M1399.43,249.28l-5.05-8.23c-2.73,0.38-4.97,0.38-7.7,0l-5.05,8.23l-0.97-0.26
				c-3.25-0.86-6.39-2.17-9.32-3.87l-0.87-0.5l2.14-8.93c0.17-0.72,0.9-1.17,1.62-1l0,0c0.72,0.17,1.17,0.9,0.99,1.62l-1.67,6.97
				c2.18,1.19,4.47,2.14,6.83,2.84l4.93-8.04l0.89,0.15c2.86,0.47,5.77,0.47,8.63,0l0.89-0.15l4.93,8.04
				c2.36-0.7,4.65-1.65,6.83-2.84l-2.19-9.16l0.73-0.53c2-1.44,3.78-3.14,5.32-5.06c0.45-0.57,1.26-0.71,1.86-0.28l0,0
				c0.61,0.44,0.76,1.31,0.29,1.91c-1.51,1.9-3.23,3.6-5.16,5.08l2.25,9.38l-0.87,0.5c-2.93,1.7-6.07,3.01-9.32,3.87L1399.43,249.28
				z M1368.49,231.32c-0.42-0.48-0.83-0.98-1.23-1.5l-9.38,2.25l-0.5-0.87c-1.7-2.93-3.01-6.07-3.87-9.32l-0.26-0.97l8.23-5.05
				c-0.19-1.37-0.28-2.64-0.28-3.85c0-1.21,0.09-2.48,0.28-3.85l-8.23-5.05l0.26-0.97c0.86-3.25,2.17-6.39,3.87-9.32l0.5-0.87
				l9.38,2.25c1.57-2.05,3.4-3.88,5.45-5.45l-1.7-7.1c-0.17-0.72,0.27-1.45,0.99-1.62l0,0c0.72-0.17,1.45,0.27,1.62,0.99l2.12,8.84
				l-0.74,0.53c-2.35,1.69-4.41,3.75-6.1,6.1l-0.53,0.73l-9.16-2.19c-1.18,2.18-2.14,4.47-2.84,6.83l8.03,4.93l-0.15,0.89
				c-0.26,1.58-0.38,2.99-0.38,4.32c0,1.33,0.12,2.74,0.38,4.32l0.15,0.89l-8.04,4.93c0.7,2.36,1.65,4.65,2.84,6.83l9.16-2.19
				l0.53,0.73c0.5,0.69,1.03,1.36,1.59,2.01c0.47,0.54,0.46,1.34-0.06,1.83l-0.05,0.05
				C1369.86,231.92,1368.99,231.88,1368.49,231.32z M1423.16,232.07l-3.46-0.83c-0.72-0.17-1.17-0.9-1-1.62l0,0
				c0.17-0.72,0.9-1.17,1.62-1l1.49,0.36c1.18-2.18,2.14-4.47,2.84-6.83l-8.04-4.93l0.15-0.89c0.26-1.58,0.38-2.99,0.38-4.32
				c0-1.33-0.12-2.74-0.38-4.32l-0.15-0.89l8.03-4.93c-0.7-2.36-1.65-4.65-2.84-6.83l-9.16,2.19l-0.53-0.73
				c-1.69-2.35-3.75-4.41-6.1-6.1l-0.74-0.53l2.19-9.16c-2.18-1.19-4.47-2.14-6.83-2.84l-4.93,8.04l-0.89-0.14
				c-2.86-0.46-5.77-0.46-8.63,0l-0.89,0.14l-4.93-8.03c-0.31,0.09-0.61,0.19-0.92,0.29c-0.68,0.22-1.42-0.14-1.66-0.82l0,0
				c-0.26-0.71,0.11-1.51,0.83-1.74c0.67-0.22,1.35-0.42,2.02-0.6l0.97-0.26l5.05,8.23c2.75-0.38,4.96-0.38,7.7,0l5.05-8.23
				l0.97,0.26c3.25,0.87,6.39,2.17,9.32,3.87l0.87,0.5l-2.25,9.38c2.05,1.57,3.88,3.4,5.45,5.45l9.38-2.25l0.5,0.87
				c1.7,2.93,3.01,6.07,3.87,9.32l0.26,0.97l-8.23,5.05c0.19,1.37,0.28,2.64,0.28,3.85c0,1.21-0.09,2.48-0.28,3.85l8.23,5.05
				l-0.26,0.97c-0.86,3.25-2.17,6.39-3.87,9.32L1423.16,232.07z M1390.15,225.12c-6.84-0.19-12.53-5.89-12.73-12.72
				c-0.2-6.89,4.95-12.64,11.59-13.41c0.8-0.09,1.51,0.54,1.51,1.34v0c0,0.68-0.51,1.25-1.18,1.33c-5.86,0.66-10.26,6.21-9.03,12.45
				c0.8,4.06,4.07,7.33,8.12,8.12c6.66,1.3,12.51-3.79,12.51-10.22c0-2.15-0.66-4.24-1.89-5.98c-0.39-0.55-0.28-1.3,0.22-1.75l0,0
				c0.6-0.53,1.55-0.42,2.01,0.24c1.52,2.19,2.35,4.8,2.35,7.49C1403.64,219.36,1397.55,225.32,1390.15,225.12z"/>
		</g>
		<g>
			<path class="st26" d="M1304.38,361.26l-3.26-5.32c-1.77,0.24-3.21,0.24-4.98,0l-3.26,5.32l-0.63-0.17
				c-2.1-0.56-4.13-1.4-6.02-2.5l-0.56-0.33l1.38-5.77c0.11-0.47,0.58-0.76,1.05-0.64l0,0c0.47,0.11,0.75,0.58,0.64,1.05l-1.08,4.5
				c1.41,0.77,2.89,1.38,4.42,1.83l3.18-5.19l0.58,0.09c1.85,0.3,3.73,0.3,5.58,0l0.58-0.09l3.18,5.19
				c1.53-0.45,3.01-1.07,4.41-1.83l-1.42-5.91l0.47-0.34c1.29-0.93,2.44-2.03,3.43-3.27c0.29-0.37,0.82-0.46,1.2-0.18l0,0
				c0.4,0.29,0.49,0.85,0.19,1.23c-0.97,1.23-2.09,2.33-3.33,3.28l1.45,6.06l-0.56,0.33c-1.9,1.1-3.92,1.94-6.02,2.5L1304.38,361.26
				z M1284.39,349.65c-0.27-0.31-0.54-0.64-0.79-0.97l-6.06,1.45l-0.32-0.56c-1.1-1.9-1.94-3.92-2.5-6.02l-0.17-0.63l5.32-3.26
				c-0.12-0.89-0.18-1.7-0.18-2.49c0-0.78,0.06-1.6,0.18-2.49l-5.32-3.26l0.17-0.63c0.56-2.1,1.4-4.13,2.5-6.02l0.32-0.56l6.06,1.45
				c1.02-1.32,2.2-2.5,3.52-3.52l-1.1-4.58c-0.11-0.47,0.18-0.93,0.64-1.05l0,0c0.47-0.11,0.94,0.18,1.05,0.64l1.37,5.71l-0.48,0.34
				c-1.52,1.09-2.85,2.42-3.94,3.94l-0.34,0.47l-5.92-1.42c-0.77,1.41-1.38,2.89-1.83,4.42l5.19,3.18l-0.09,0.58
				c-0.17,1.02-0.25,1.93-0.25,2.79c0,0.86,0.08,1.77,0.25,2.79l0.09,0.58l-5.19,3.18c0.45,1.53,1.07,3.01,1.83,4.42l5.92-1.42
				l0.34,0.47c0.32,0.45,0.67,0.88,1.03,1.3c0.3,0.35,0.29,0.86-0.04,1.18l-0.03,0.03C1285.27,350.05,1284.71,350.02,1284.39,349.65
				z M1319.71,350.14l-2.23-0.53c-0.47-0.11-0.76-0.58-0.64-1.05l0,0c0.11-0.47,0.58-0.75,1.05-0.64l0.97,0.23
				c0.77-1.41,1.38-2.89,1.83-4.42l-5.19-3.18l0.09-0.58c0.17-1.02,0.25-1.93,0.25-2.79c0-0.86-0.08-1.77-0.25-2.79l-0.09-0.58
				l5.19-3.18c-0.45-1.53-1.07-3.01-1.83-4.42l-5.92,1.42l-0.34-0.47c-1.09-1.52-2.42-2.85-3.94-3.94l-0.48-0.34l1.42-5.92
				c-1.41-0.77-2.89-1.38-4.42-1.83l-3.18,5.19l-0.58-0.09c-1.85-0.3-3.73-0.3-5.58,0l-0.58,0.09l-3.18-5.19
				c-0.2,0.06-0.4,0.12-0.59,0.18c-0.44,0.14-0.92-0.09-1.07-0.53l0,0c-0.17-0.46,0.07-0.97,0.53-1.12
				c0.43-0.14,0.87-0.27,1.31-0.39l0.63-0.17l3.26,5.32c1.77-0.25,3.2-0.25,4.98,0l3.26-5.32l0.63,0.17c2.1,0.56,4.13,1.4,6.02,2.5
				l0.56,0.33l-1.45,6.06c1.32,1.02,2.51,2.2,3.52,3.52l6.06-1.45l0.32,0.56c1.1,1.9,1.94,3.92,2.5,6.02l0.17,0.63l-5.32,3.26
				c0.12,0.89,0.18,1.7,0.18,2.49c0,0.78-0.06,1.6-0.18,2.49l5.32,3.26l-0.17,0.63c-0.56,2.1-1.4,4.13-2.5,6.02L1319.71,350.14z
				 M1298.38,345.65c-4.42-0.12-8.1-3.8-8.22-8.22c-0.13-4.45,3.2-8.17,7.49-8.66c0.52-0.06,0.98,0.35,0.98,0.87l0,0
				c0,0.44-0.33,0.81-0.76,0.86c-3.79,0.43-6.63,4.01-5.84,8.04c0.51,2.62,2.63,4.73,5.25,5.25c4.3,0.84,8.08-2.45,8.08-6.6
				c0-1.39-0.43-2.74-1.22-3.86c-0.25-0.36-0.18-0.84,0.14-1.13l0,0c0.39-0.35,1-0.27,1.3,0.16c0.98,1.41,1.52,3.1,1.52,4.84
				C1307.1,341.93,1303.17,345.78,1298.38,345.65z"/>
		</g>
		
			<ellipse id="_x3C_Path_x3E__00000131360505868731495190000013497142220647307934_" class="st5" cx="1521.13" cy="645.96" rx="296.61" ry="17.32"/>
		<g>
			<path class="st6" d="M1694.69,233.11h-49.81l-35.23,402.72h49.81c14.17,0,26.7-11.52,27.94-25.69l30.74-351.34
				C1719.37,244.64,1708.85,233.11,1694.69,233.11z"/>
			<path class="st6" d="M1684.52,233.11h-168.58c-14.17,0-26.7,11.52-27.94,25.69l-30.74,351.34c-1.24,14.17,9.28,25.69,23.44,25.69
				h168.58c14.17,0,26.7-11.52,27.94-25.69l30.74-351.34C1709.21,244.64,1698.69,233.11,1684.52,233.11z"/>
			<path class="st7" d="M1684.52,233.11h-168.58c-14.17,0-26.7,11.52-27.94,25.69l-30.74,351.34c-1.24,14.17,9.28,25.69,23.44,25.69
				h168.58c14.17,0,26.7-11.52,27.94-25.69l30.74-351.34C1709.21,244.64,1698.69,233.11,1684.52,233.11z"/>
			<path class="st8" d="M1683.8,241.34h-44.45c-2.62,0-5.08,1.72-6.06,4.23l0,0c-3.59,9.29-12.69,15.65-22.39,15.65h-26.28
				c-9.69,0-17.68-6.36-19.65-15.65v0c-0.53-2.51-2.69-4.23-5.31-4.23h-44.45c-9.64,0-18.14,7.82-18.99,17.46l-30.74,351.34
				c-0.84,9.64,6.29,17.46,15.93,17.46h168.58c9.64,0,18.14-7.82,18.99-17.46l30.74-351.34
				C1700.58,249.16,1693.45,241.34,1683.8,241.34z"/>
			<path class="st9" d="M1641.81,432.19h-117.99c-3.5,0-6.09-2.84-5.78-6.33l0.59-6.75c0.31-3.5,3.39-6.33,6.89-6.33h117.99
				c3.5,0,6.09,2.84,5.78,6.33l-0.59,6.75C1648.39,429.35,1645.31,432.19,1641.81,432.19z"/>
			<path class="st9" d="M1639.26,461.32h-117.99c-3.5,0-6.09-2.84-5.78-6.33l0.59-6.75c0.31-3.5,3.39-6.33,6.89-6.33h117.99
				c3.5,0,6.09,2.84,5.78,6.33l-0.59,6.75C1645.84,458.48,1642.76,461.32,1639.26,461.32z"/>
			<path class="st10" d="M1605.96,247.92c-0.34,3.88-3.76,7.02-7.64,7.02c-3.88,0-6.75-3.14-6.41-7.02
				c0.34-3.88,3.76-7.02,7.64-7.02C1603.43,240.9,1606.3,244.05,1605.96,247.92z"/>
			<path class="st10" d="M1602.77,247.92c-0.19,2.12-2.05,3.84-4.17,3.84c-2.12,0-3.69-1.72-3.5-3.84c0.19-2.12,2.05-3.84,4.17-3.84
				C1601.39,244.09,1602.96,245.8,1602.77,247.92z"/>
			<g>
				<g class="st11">
					<path class="st9" d="M1663.05,259.64L1663.05,259.64c-1.14,0-1.98-0.92-1.88-2.06l0.33-3.76c0.1-1.14,1.1-2.06,2.24-2.06l0,0
						c1.14,0,1.98,0.92,1.88,2.06l-0.33,3.76C1665.19,258.72,1664.19,259.64,1663.05,259.64z"/>
					<path class="st9" d="M1679.51,259.64L1679.51,259.64c-1.14,0-1.98-0.92-1.88-2.06l0.77-8.83c0.1-1.14,1.1-2.06,2.24-2.06l0,0
						c1.14,0,1.98,0.92,1.88,2.06l-0.77,8.83C1681.65,258.72,1680.65,259.64,1679.51,259.64z"/>
					<path class="st9" d="M1671.28,259.64L1671.28,259.64c-1.14,0-1.98-0.92-1.88-2.06l0.55-6.29c0.1-1.14,1.1-2.06,2.24-2.06l0,0
						c1.14,0,1.98,0.92,1.88,2.06l-0.55,6.29C1673.42,258.72,1672.42,259.64,1671.28,259.64z"/>
				</g>
				<g class="st11">
					<path class="st9" d="M1522.1,259.64h-10.33c-0.64,0-1.12-0.52-1.06-1.16l0.49-5.55c0.06-0.64,0.62-1.17,1.27-1.17h10.33
						c0.64,0,1.12,0.52,1.06,1.17l-0.49,5.55C1523.31,259.12,1522.75,259.64,1522.1,259.64z"/>
					<path class="st9" d="M1526.89,258.13L1526.89,258.13c-0.64,0-1.12-0.52-1.06-1.16l0.22-2.54c0.06-0.64,0.62-1.16,1.27-1.16l0,0
						c0.64,0,1.12,0.52,1.06,1.16l-0.22,2.54C1528.1,257.61,1527.54,258.13,1526.89,258.13z"/>
				</g>
			</g>
			
				<ellipse transform="matrix(0.7224 -0.6915 0.6915 0.7224 196.7434 1197.4091)" class="st9" cx="1589.68" cy="353.67" rx="51.6" ry="47.28"/>
			<g>
				<path class="st6" d="M1589.85,351.75c-12.98,0-23.94,4.94-24.88,15.67l-1.04,11.91h47.01l1.04-11.91
					C1612.92,356.69,1602.83,351.75,1589.85,351.75z"/>
				<path class="st6" d="M1590.28,346.85c6.02,0,8.8-4.88,9.33-10.91c0.53-6.02-1.4-10.91-7.42-10.91c-6.02,0-8.8,4.88-9.33,10.91
					C1582.33,341.96,1584.26,346.85,1590.28,346.85z"/>
			</g>
			<g>
				<path class="st6" d="M1636.42,422.13c-3.21,0-5.91,1.22-6.14,3.87l-0.26,2.94h11.61l0.26-2.94
					C1642.12,423.35,1639.63,422.13,1636.42,422.13z"/>
				<path class="st6" d="M1636.53,420.92c1.49,0,2.17-1.21,2.3-2.69c0.13-1.49-0.34-2.69-1.83-2.69c-1.49,0-2.17,1.21-2.3,2.69
					C1634.56,419.71,1635.04,420.92,1636.53,420.92z"/>
			</g>
			<path class="st6" d="M1600.67,490.44h-45.91c-5.36,0-9.33-4.35-8.86-9.71v0c0.47-5.36,5.2-9.71,10.56-9.71h45.91
				c5.36,0,9.33,4.35,8.86,9.71v0C1610.76,486.1,1606.03,490.44,1600.67,490.44z"/>
			<path class="st6" d="M1595.13,598.72H1546c-5.67,0-9.86-4.59-9.36-10.26l3.14-35.84c0.5-5.67,5.49-10.26,11.16-10.26h49.13
				c5.67,0,9.86,4.59,9.36,10.26l-3.14,35.84C1605.79,594.13,1600.8,598.72,1595.13,598.72z"/>
			<g class="st12">
				<path class="st9" d="M1579.98,561.68c0.3-3.41-2.22-6.17-5.63-6.17c-3.41,0-6.42,2.76-6.71,6.17c-0.18,2.03,0.66,3.82,2.07,4.94
					l-1.08,12.34c-0.18,2.03,1.32,3.67,3.35,3.67c2.03,0,3.81-1.64,3.99-3.67l1.08-12.34
					C1578.65,565.5,1579.8,563.71,1579.98,561.68z"/>
			</g>
			<g>
				<path class="st6" d="M1600.5,549.83h-6.33l1.55-17.73c0.93-10.65-6.98-19.32-17.63-19.32s-20.08,8.67-21.01,19.32l-1.55,17.73
					h-6.33l1.55-17.73c1.24-14.15,13.75-25.65,27.9-25.65c14.15,0,24.65,11.51,23.41,25.65L1600.5,549.83z"/>
			</g>
			<path class="st6" d="M1637.2,449.29l0.15-1.7c0.15-1.74-1.14-3.15-2.88-3.15c-1.74,0-3.28,1.41-3.43,3.15l-0.15,1.7
				c-0.69,0-1.31,0.56-1.37,1.26l-0.4,4.52c-0.06,0.69,0.45,1.26,1.15,1.26h6.3c0.69,0,1.31-0.56,1.37-1.26l0.4-4.52
				C1638.41,449.85,1637.89,449.29,1637.2,449.29z M1634.4,445.21c1.31,0,2.28,1.07,2.17,2.37l-0.15,1.7h-4.75l0.15-1.7
				C1631.93,446.27,1633.09,445.21,1634.4,445.21z"/>
			<g>
				<path class="st13" d="M1542.31,451.1l-2.2-0.45c-0.26-0.05-0.39-0.33-0.29-0.58l0.92-2.17c0.2-0.47-0.37-0.81-0.73-0.44
					l-1.66,1.71c-0.2,0.2-0.51,0.2-0.67,0l-1.36-1.71c-0.29-0.37-0.92-0.02-0.8,0.44l0.54,2.17c0.06,0.26-0.12,0.53-0.39,0.58
					l-2.28,0.45c-0.49,0.1-0.55,0.78-0.08,0.88l2.2,0.45c0.26,0.05,0.39,0.33,0.29,0.58l-0.92,2.17c-0.2,0.47,0.37,0.81,0.73,0.44
					l1.66-1.71c0.2-0.2,0.51-0.2,0.67,0l1.36,1.71c0.29,0.37,0.92,0.02,0.8-0.44l-0.54-2.17c-0.06-0.26,0.12-0.53,0.39-0.58
					l2.28-0.45C1542.73,451.88,1542.79,451.19,1542.31,451.1z"/>
				<path class="st13" d="M1556.79,451.1l-2.2-0.45c-0.26-0.05-0.39-0.33-0.29-0.58l0.92-2.17c0.2-0.47-0.37-0.81-0.73-0.44
					l-1.66,1.71c-0.2,0.2-0.51,0.2-0.67,0l-1.36-1.71c-0.29-0.37-0.92-0.02-0.8,0.44l0.54,2.17c0.06,0.26-0.12,0.53-0.39,0.58
					l-2.28,0.45c-0.49,0.1-0.55,0.78-0.08,0.88l2.2,0.45c0.26,0.05,0.4,0.33,0.29,0.58l-0.92,2.17c-0.2,0.47,0.37,0.81,0.73,0.44
					l1.66-1.71c0.2-0.2,0.51-0.2,0.67,0l1.36,1.71c0.29,0.37,0.92,0.02,0.8-0.44l-0.54-2.17c-0.06-0.26,0.12-0.53,0.39-0.58
					l2.28-0.45C1557.2,451.88,1557.26,451.19,1556.79,451.1z"/>
				<path class="st13" d="M1571.27,451.1l-2.2-0.45c-0.26-0.05-0.39-0.33-0.29-0.58l0.92-2.17c0.2-0.47-0.37-0.81-0.73-0.44
					l-1.66,1.71c-0.2,0.2-0.51,0.2-0.67,0l-1.36-1.71c-0.29-0.37-0.92-0.02-0.8,0.44l0.54,2.17c0.06,0.26-0.12,0.53-0.39,0.58
					l-2.28,0.45c-0.49,0.1-0.55,0.78-0.08,0.88l2.2,0.45c0.26,0.05,0.39,0.33,0.29,0.58l-0.92,2.17c-0.2,0.47,0.37,0.81,0.73,0.44
					l1.66-1.71c0.2-0.2,0.51-0.2,0.67,0l1.36,1.71c0.29,0.37,0.92,0.02,0.8-0.44l-0.54-2.17c-0.06-0.26,0.12-0.53,0.39-0.58
					l2.28-0.45C1571.68,451.88,1571.74,451.19,1571.27,451.1z"/>
				<path class="st13" d="M1585.74,451.1l-2.2-0.45c-0.26-0.05-0.4-0.33-0.29-0.58l0.92-2.17c0.2-0.47-0.37-0.81-0.73-0.44
					l-1.66,1.71c-0.2,0.2-0.51,0.2-0.67,0l-1.36-1.71c-0.29-0.37-0.92-0.02-0.8,0.44l0.54,2.17c0.06,0.26-0.12,0.53-0.39,0.58
					l-2.28,0.45c-0.49,0.1-0.55,0.78-0.08,0.88l2.2,0.45c0.26,0.05,0.39,0.33,0.29,0.58l-0.92,2.17c-0.2,0.47,0.37,0.81,0.73,0.44
					l1.66-1.71c0.2-0.2,0.51-0.2,0.67,0l1.36,1.71c0.29,0.37,0.92,0.02,0.8-0.44l-0.54-2.17c-0.06-0.26,0.12-0.53,0.39-0.58
					l2.28-0.45C1586.16,451.88,1586.22,451.19,1585.74,451.1z"/>
				<path class="st13" d="M1600.22,451.1l-2.2-0.45c-0.26-0.05-0.39-0.33-0.29-0.58l0.92-2.17c0.2-0.47-0.37-0.81-0.73-0.44
					l-1.66,1.71c-0.2,0.2-0.51,0.2-0.67,0l-1.36-1.71c-0.29-0.37-0.92-0.02-0.8,0.44l0.54,2.17c0.06,0.26-0.12,0.53-0.39,0.58
					l-2.28,0.45c-0.49,0.1-0.55,0.78-0.08,0.88l2.2,0.45c0.26,0.05,0.4,0.33,0.29,0.58l-0.92,2.17c-0.2,0.47,0.37,0.81,0.73,0.44
					l1.66-1.71c0.2-0.2,0.51-0.2,0.67,0l1.36,1.71c0.29,0.37,0.92,0.02,0.8-0.44l-0.54-2.17c-0.06-0.26,0.12-0.53,0.39-0.58
					l2.28-0.45C1600.63,451.88,1600.69,451.19,1600.22,451.1z"/>
				<path class="st13" d="M1614.7,451.1l-2.2-0.45c-0.26-0.05-0.39-0.33-0.29-0.58l0.92-2.17c0.2-0.47-0.37-0.81-0.73-0.44
					l-1.66,1.71c-0.2,0.2-0.51,0.2-0.67,0l-1.36-1.71c-0.29-0.37-0.92-0.02-0.8,0.44l0.54,2.17c0.06,0.26-0.12,0.53-0.39,0.58
					l-2.28,0.45c-0.49,0.1-0.55,0.78-0.08,0.88l2.2,0.45c0.26,0.05,0.4,0.33,0.29,0.58l-0.92,2.17c-0.2,0.47,0.37,0.81,0.73,0.44
					l1.66-1.71c0.2-0.2,0.51-0.2,0.67,0l1.36,1.71c0.29,0.37,0.92,0.02,0.8-0.44l-0.54-2.17c-0.06-0.26,0.12-0.53,0.39-0.58
					l2.28-0.45C1615.11,451.88,1615.17,451.19,1614.7,451.1z"/>
			</g>
			<g>
				<path class="st13" d="M1579.8,419.42h-27.18c-1.69,0-3.18,1.37-3.33,3.06c-0.15,1.69,1.1,3.06,2.79,3.06h27.18
					c1.69,0,3.18-1.37,3.33-3.06C1582.74,420.79,1581.49,419.42,1579.8,419.42z"/>
				<path class="st13" d="M1607.4,419.42h-15.77c-1.69,0-3.18,1.37-3.33,3.06c-0.15,1.69,1.1,3.06,2.79,3.06h15.77
					c1.69,0,3.18-1.37,3.33-3.06C1610.33,420.79,1609.09,419.42,1607.4,419.42z"/>
			</g>
			<path class="st13" d="M1628.22,558.1c-10.25,4.09-19.23,10.06-25.38,16.85c-3.61-3.07-8.73-5.2-14.88-6.17l-0.72-0.11l-0.32,3.61
				l0.4,0.15c6.07,2.29,11,6.36,14.28,11.76l0.51,0.85l0.57-0.91c6.3-10.09,15.49-18.55,25.88-23.8l0.35-0.18l0.21-2.4
				L1628.22,558.1z"/>
		</g>
		<path class="st14" d="M1491.52,256.9c-1.91,3.36-3.17,7.11-3.52,11.08l-22.78,260.41h70.49l14.16-54.3l-4.66-54.3l14.16-54.3
			l-4.66-54.3l14.16-54.3H1491.52z"/>
		<g>
			<g>
				<polygon class="st6" points="1548.59,295.9 1562.75,241.6 1384.49,241.6 1370.33,295.9 1374.99,350.2 1360.83,404.49 
					1365.49,458.79 1351.33,513.09 1529.59,513.09 1543.75,458.79 1539.09,404.49 1553.25,350.2 				"/>
				<polygon class="st15" points="1548.59,295.9 1562.75,241.6 1384.49,241.6 1370.33,295.9 1374.99,350.2 1360.83,404.49 
					1365.49,458.79 1351.33,513.09 1529.59,513.09 1543.75,458.79 1539.09,404.49 1553.25,350.2 				"/>
				<polygon class="st16" points="1548.59,295.9 1370.33,295.9 1384.49,241.6 1562.75,241.6 				"/>
				<polygon class="st16" points="1539.09,404.49 1360.83,404.49 1374.99,350.2 1553.25,350.2 				"/>
				<polygon class="st16" points="1529.59,513.09 1351.33,513.09 1365.49,458.79 1543.75,458.79 				"/>
			</g>
			<path class="st14" d="M1524.74,318.59c-1.53,0.48-3.49,0.77-5.63,0.77c-3.15,0-5.91-0.62-7.49-1.56
				c-0.43-0.26-0.91-0.39-1.38-0.39l0,0c-0.44,0-0.88,0.12-1.29,0.35c-0.03,0.02-0.06,0.02-0.09,0.04h0l0,0
				c-0.02,0.01-0.04,0.02-0.06,0.03c-0.58,0.34-1.32,0.64-2.17,0.88c-1.47,0.41-3.29,0.65-5.26,0.65c-0.53,0-1.06-0.02-1.57-0.05
				c-1.53-0.1-2.92-0.35-4.06-0.71c-0.2-0.06-0.4-0.1-0.6-0.11c-1.39-0.09-2.63,0.97-2.63,2.45v0v1.66h-69.29
				c-5.36,0-9.71,4.35-9.71,9.71v9.79c0,5.36,4.35,9.71,9.71,9.71h78.83c0.17,0,0.34-0.02,0.51-0.03c0.85,0.7,1.74,1.41,2.67,2.12
				c1.12,0.85,2.31,1.71,3.54,2.61c0.86,0.63,2.05,0.63,2.91,0c9.91-7.19,16.28-12.15,16.28-25.77v-9.8
				C1527.97,319.24,1526.34,318.09,1524.74,318.59z"/>
			<g>
				<path class="st6" d="M1500.55,346.39h-78.83c-5.36,0-9.71-4.35-9.71-9.71v-9.79c0-5.36,4.35-9.71,9.71-9.71h78.83
					c5.36,0,9.71,4.35,9.71,9.71v9.79C1510.26,342.05,1505.91,346.39,1500.55,346.39z"/>
				<g>
					<g>
						<path class="st6" d="M1517.6,313.96c-3.15,0-5.91-0.62-7.48-1.56c-0.86-0.52-1.9-0.52-2.76,0c-1.57,0.94-4.34,1.56-7.48,1.56
							c-2.14,0-4.1-0.29-5.63-0.77c-1.61-0.5-3.23,0.65-3.23,2.33v9.8c0,13.62,6.36,18.58,16.28,25.77c0.86,0.63,2.05,0.63,2.91,0
							c9.91-7.19,16.28-12.15,16.28-25.77v-9.8c0-1.68-1.63-2.83-3.23-2.33C1521.7,313.68,1519.74,313.96,1517.6,313.96z"/>
						<path class="st7" d="M1517.6,313.96c-3.15,0-5.91-0.62-7.48-1.56c-0.86-0.52-1.9-0.52-2.76,0c-1.57,0.94-4.34,1.56-7.48,1.56
							c-2.14,0-4.1-0.29-5.63-0.77c-1.61-0.5-3.23,0.65-3.23,2.33v9.8c0,13.62,6.36,18.58,16.28,25.77c0.86,0.63,2.05,0.63,2.91,0
							c9.91-7.19,16.28-12.15,16.28-25.77v-9.8c0-1.68-1.63-2.83-3.23-2.33C1521.7,313.68,1519.74,313.96,1517.6,313.96z"/>
						<path class="st17" d="M1507.36,312.4c-1.57,0.94-4.34,1.56-7.48,1.56c-2.14,0-4.1-0.29-5.63-0.77
							c-1.61-0.5-3.23,0.65-3.23,2.33v9.8c0,13.62,6.36,18.58,16.28,25.77c0.43,0.31,0.94,0.47,1.45,0.47v-39.55
							C1508.26,312.02,1507.79,312.14,1507.36,312.4z"/>
					</g>
					<path class="st13" d="M1522.95,322.65c-6.41,2.65-11.89,6.52-15.48,10.91c-2.51-1.99-5.95-3.37-9.98-4l-0.47-0.07v2.34
						l0.27,0.1c4.06,1.48,7.49,4.12,9.91,7.61l0.38,0.55l0.32-0.59c3.51-6.54,8.98-12.01,15.41-15.42l0.22-0.12v-1.55
						L1522.95,322.65z"/>
				</g>
			</g>
			<g>
				<path class="st6" d="M1559.61,256.87h-6.76c-3.75,0-6.53-3.04-6.2-6.79l0.59-6.76c0.33-3.75,3.63-6.79,7.39-6.79h6.76
					c3.75,0,6.53,3.04,6.2,6.79l-0.59,6.76C1566.66,253.83,1563.36,256.87,1559.61,256.87z"/>
				<polygon class="st9" points="1562.42,243.3 1560.95,241.69 1557.26,245.09 1554.16,241.69 1552.41,243.3 1555.51,246.7 
					1551.81,250.09 1553.28,251.7 1556.97,248.3 1560.07,251.7 1561.82,250.09 1558.72,246.7 				"/>
			</g>
		</g>
		<g>
			<g>
				<path class="st18" d="M1408.49,315.21c3.92,4.26,7.67,8.68,11.37,13.14c3.7,4.45,7.32,8.99,10.88,13.56
					c0.16,0.2,0.09,0.12,0.13,0.18c0.02,0.03,0.02,0.07,0.04,0.09c0.04,0.04,0.06,0.12,0.11,0.16c0.07,0.11,0.17,0.19,0.28,0.3
					c0.22,0.19,0.51,0.34,0.85,0.4c0.16,0.03,0.34,0.05,0.51,0.03c0.1,0.01,0.18-0.02,0.28-0.02c0.05,0,0.09-0.03,0.14-0.03
					c0.08-0.03,0.03,0.04,0.24-0.09l3.83-2.08c5.14-2.72,10.32-5.38,15.68-7.77l4.48,5.55c-4.32,3.97-8.81,8.94-13.35,12.58
					l-3.43,2.69c-0.09,0.08-0.46,0.32-0.69,0.48c-0.27,0.17-0.52,0.35-0.8,0.5c-0.56,0.31-1.12,0.61-1.71,0.85
					c-1.17,0.51-2.43,0.83-3.7,1.03c-2.55,0.38-5.2,0.12-7.67-0.76c-1.23-0.44-2.43-1.04-3.52-1.79c-0.56-0.36-1.07-0.78-1.57-1.21
					c-0.26-0.21-0.48-0.45-0.72-0.68l-0.61-0.62c-4.05-4.15-8.05-8.34-11.96-12.61c-3.92-4.27-7.79-8.58-11.48-13.04L1408.49,315.21
					z"/>
				<path class="st18" d="M1450.74,336.46l3.57-11.45l9.39,4.68c0,0-1.37,8.36-8.2,9.81L1450.74,336.46z"/>
				<polygon class="st18" points="1458.08,321.83 1466.54,324.16 1463.7,329.68 1454.31,325 				"/>
			</g>
			<g>
				<path class="st18" d="M1359.11,318.33c-1.02,4.87-2.27,9.68-3.58,14.48c-1.3,4.8-2.72,9.57-4.2,14.33l-0.55,1.78l-0.28,0.89
					c-0.06,0.19-0.1,0.24-0.15,0.37c-0.17,0.45-0.27,0.94-0.29,1.45c-0.03,1.02,0.22,2.15,0.88,3.14c0.06,0.16,0.58,0.71,0.99,1.16
					l1.27,1.38l2.5,2.8c1.65,1.89,3.29,3.79,4.85,5.79l-5.33,6.17c-2.2-1.25-4.32-2.6-6.43-3.96l-3.14-2.07l-1.55-1.06
					c-0.53-0.37-0.95-0.61-1.8-1.31c-2.91-2.47-5.08-5.97-5.88-9.86c-0.41-1.94-0.51-3.97-0.28-5.97c0.06-0.48,0.15-1.04,0.22-1.45
					l0.16-0.92l0.32-1.84c0.86-4.91,1.77-9.8,2.81-14.66c1.03-4.87,2.12-9.72,3.43-14.51L1359.11,318.33z"/>
				<path class="st18" d="M1355.34,365.47l6.31-3.23l2.78,10.73c0,0-5.07,1.94-8.99-0.55L1355.34,365.47z"/>
				<polygon class="st18" points="1370.37,358.81 1370.66,368.65 1363.61,373.26 1361.16,362.45 				"/>
			</g>
			<path class="st19" d="M1391.01,267.75c0.15,0.76,0.68,1.29,1.18,1.19c0.5-0.1,0.77-0.8,0.62-1.56c-0.15-0.76-0.68-1.29-1.18-1.19
				C1391.13,266.3,1390.85,266.99,1391.01,267.75z"/>
			<path class="st20" d="M1391.62,269.06c0,0,2.61,4.02,4.94,5.75c-1.09,1.52-3.48,1.42-3.48,1.42L1391.62,269.06z"/>
			<path class="st19" d="M1387.38,264.1c-0.11,0-0.22-0.04-0.31-0.12c-0.18-0.17-0.2-0.46-0.02-0.64c1.71-1.85,3.78-1.52,3.87-1.5
				c0.25,0.04,0.41,0.28,0.37,0.52c-0.04,0.25-0.28,0.41-0.52,0.37l0,0c-0.07-0.01-1.69-0.25-3.05,1.22
				C1387.62,264.06,1387.5,264.1,1387.38,264.1z"/>
			<path class="st18" d="M1368.95,278.41c1.69,7.02,3.37,19.87-2.65,24.56c0,0,2.35,7.12,18.35,7.12c17.59,0,8.41-4.58,8.41-4.58
				c-9.6-1.87-9.35-10.21-7.68-15.66L1368.95,278.41z"/>
			<path class="st19" d="M1364.42,304.27c-1.05-1.95-2.2-4.18,0.18-4.88c2.63-0.77,19.5-2.2,24.46-0.75
				c-1.52,2.71,1.06,6.04,1.06,6.04L1364.42,304.27z"/>
			<polygon class="st18" points="1378.39,632.53 1389.43,632.53 1390.53,610.32 1379.49,610.32 			"/>
			<polygon class="st18" points="1308.35,629.47 1319.53,630.07 1326.33,608.18 1315.15,607.59 			"/>
			<path class="st19" d="M1319.19,629.18l-10.53-2.28c-0.38-0.08-0.77,0.11-0.94,0.47l-3.66,7.93c-0.38,0.82,0.12,1.79,1.01,1.96
				c3.69,0.73,5.52,0.9,10.16,1.91c2.85,0.62,9.28,2.18,13.22,3.04c3.85,0.83,5.29-2.93,3.76-3.63c-6.88-3.14-9.76-5.91-11.62-8.49
				C1320.25,629.62,1319.75,629.3,1319.19,629.18z"/>
			<path class="st19" d="M1388.85,631.42h-10.48c-0.39,0-0.73,0.27-0.82,0.66l-1.89,8.53c-0.2,0.88,0.47,1.72,1.38,1.71
				c3.78-0.06,9.24-0.29,13.99-0.29c5.55,0,10.35,0.3,16.86,0.3c3.94,0,5.03-3.98,3.38-4.34c-7.5-1.64-13.63-1.82-20.12-5.82
				C1390.45,631.74,1389.67,631.42,1388.85,631.42z"/>
			<path class="st19" d="M1346.31,306.22c-8.33,3.96-10.59,27.97-10.59,27.97l20.61,9.52c0,0,5.11-7.53,5.51-19.38
				C1362.24,311.91,1354.83,302.17,1346.31,306.22z"/>
			<path class="st21" d="M1357.49,321.02c-3.72,5.77-3.37,14.71-2.08,22.26l0.91,0.43c0,0,5.12-7.54,5.51-19.39
				c0.02-0.74,0.02-1.48-0.01-2.19L1357.49,321.02z"/>
			<g>
				<path class="st22" d="M1403.81,305.63c0,0,10.21,11.53,0.57,82.91c-15.46,0-43.78,0-51.3,0c-0.35-7.88,4.59-46.29-3-83.4
					c0,0,8.79-1.76,17.17-2.17c6.56-0.32,16.05-0.53,21.81,0C1396.66,303.67,1403.81,305.63,1403.81,305.63z"/>
				<path class="st23" d="M1403.81,305.63c0,0,10.21,11.53,0.57,82.91c-15.46,0-43.78,0-51.3,0c-0.35-7.88,4.59-46.29-3-83.4
					c0,0,8.79-1.76,17.17-2.17c6.56-0.32,16.05-0.53,21.81,0C1396.66,303.67,1403.81,305.63,1403.81,305.63z"/>
			</g>
			<path class="st14" d="M1408.3,327.45l-0.2-0.17l-10.2-5.45c-1.04,15.71,5.99,25.56,10.16,29.87
				C1408.64,341.63,1408.62,333.69,1408.3,327.45z"/>
			<polygon class="st14" points="1390.53,610.33 1389.96,621.78 1378.92,621.78 1379.48,610.33 			"/>
			<polygon class="st14" points="1315.14,607.6 1326.33,608.19 1322.82,619.47 1311.63,618.88 			"/>
			<path class="st18" d="M1365.39,271.28c2.46,9.2,3.44,14.7,9.11,18.53c8.54,5.75,19.16-0.85,19.49-10.6
				c0.3-8.77-3.78-22.34-13.65-24.19C1370.63,253.2,1362.93,262.09,1365.39,271.28z"/>
			<path class="st19" d="M1386.18,388.54c0,0-10.89,73.3-16.86,100.77c-6.54,30.07-41.64,129.57-41.64,129.57l-17.17-3.72
				c0,0,22.01-81.08,27.5-123.13c2.14-16.41,4.73-42.85,8-64.91c3.17-21.35,7.06-38.59,7.06-38.59H1386.18z"/>
			<path class="st22" d="M1331.79,613.15c0.07,0.02-3.2,6.21-3.2,6.21l-19.32-4.18l1.63-5.81L1331.79,613.15z"/>
			<path class="st24" d="M1331.79,613.15c0.07,0.02-3.2,6.21-3.2,6.21l-19.32-4.18l1.63-5.81L1331.79,613.15z"/>
			<path class="st12" d="M1379.3,414.66c-12.59,2.47-11.26,49.41-9.74,73.55c3.63-17.07,8.94-49.9,12.57-73.21
				C1381.3,414.58,1380.36,414.45,1379.3,414.66z"/>
			<path class="st19" d="M1404.38,388.54c0,0,5.12,71.72,4.08,100.97c-1.09,30.43-15.51,130.05-15.51,130.05h-16.25
				c0,0-0.6-97.84-1.32-127.73c-0.79-32.58-4.72-103.29-4.72-103.29H1404.38z"/>
			<path class="st22" d="M1396.07,613.09c0.07,0-0.92,6.75-0.92,6.75h-19.77l-0.53-6.02L1396.07,613.09z"/>
			<path class="st24" d="M1396.07,613.09c0.07,0-0.92,6.75-0.92,6.75h-19.77l-0.53-6.02L1396.07,613.09z"/>
			<path class="st19" d="M1397.83,319.07c0,19.25,10.24,27.17,10.24,27.17l16.65-16.27c0,0-5.66-9.75-13.44-18.71
				C1401.65,300.2,1397.83,306.69,1397.83,319.07z"/>
			<path class="st14" d="M1393.42,282.7c-0.42,1.18-1.53,3.18-4.32,3.98c-4.06,1.16-4.12,4.61-4.12,4.61l0.05,0.06
				C1388.91,290.06,1392.14,286.86,1393.42,282.7z"/>
			<path class="st19" d="M1389.1,253.01c3.43-4.32-1.85-4.53-1.85-4.53c1.37-5.16-4.8-2.38-4.8-2.38c-3.71-5.11-5.8,1.11-5.8,1.11
				c-3.84-4.33-4.55,2.74-4.55,2.74c-3.85-5.49-5.82,2.43-5.82,2.43c-3.55-5.7-5.72,1.73-5.72,1.73c-7.33-2.62-3.84,4.99-3.84,4.99
				c-6.26,0.18-1.24,5.01-1.24,5.01c-7.49,0.02-0.89,4.31-0.89,4.31c-5.95,3.9,1.52,4.95,1.52,4.95c-4.85,7.59,3.48,4.78,3.48,4.78
				c-3.38,7.51,4.11,4.2,4.11,4.2c-0.49,7.25,3.7,5.28,5.71,3.93c0.39,1.46,1.11,3.01,2.46,3.18c2.61,0.34,3.12-4.59,3.12-4.59
				s2.43,1.89,4.46,0.86c2.03-1.02,1.27-3.61,1.27-3.61s1.56,1.16,2.98,0.05c0.87-0.68,0.88-5.55-0.23-7.26l3.98-1.56
				c0,0,2.95-0.42,1.64-4.31c-1.32-3.9-0.2-6.97-0.2-6.97c4.5-2.11,0.81-4.64,0.81-4.64C1394.91,254.08,1389.1,253.01,1389.1,253.01
				z"/>
			<path class="st18" d="M1381.04,271.67c0.63,2.41,2.21,4.49,3.87,5.72c2.5,1.86,4.36,0.03,4.18-2.8c-0.16-2.54-1.65-6.57-4.4-7.33
				C1381.97,266.53,1380.32,268.91,1381.04,271.67z"/>
		</g>
	</g>
</g>
</svg>
